<svg xmlns="http://www.w3.org/2000/svg" viewBox="0 0 512 512" fill="none" stroke="#10B981" stroke-width="32" stroke-linecap="round" stroke-linejoin="round">
  <rect x="32" y="32" width="448" height="448" rx="100" fill="#04100C" stroke="none" />
  <path d="M256 128s-96 64-96 160c0 53 43 96 96 96s96-43 96-96c0-96-96-160-96-160z" fill="#EF4444" stroke="#EA580C" stroke-width="16" />
  <path d="M256 192s-48 32-48 96c0 26 21 48 48 48s48-21 48-48c0-64-48-96-48-96z" fill="#F59E0B" stroke="none" />
  <path d="M256 416c-88 0-160-72-160-160 0-44 17-83 47-111" />
  <path d="M416 256c0 88-72 160-160 160" />
</svg>
